<svg width="28" height="30" viewBox="0 0 28 30" fill="none" xmlns="http://www.w3.org/2000/svg">
<g filter="url(#filter0_i_6_9)">
<path d="M8.6812 5.68562C9.6749 2.45765 13.8617 1.63389 16.0042 4.2448L16.8577 5.28483C17.6281 6.22371 18.7645 6.78672 19.9782 6.83088L21.7682 6.89602C24.9057 7.01018 26.833 10.3783 25.3418 13.1411L24.1955 15.265C23.664 16.2496 23.5438 17.4045 23.8609 18.4776L24.4662 20.5255C25.3986 23.6803 22.5359 26.6475 19.3498 25.8288L18.2536 25.5472C17.0138 25.2286 15.6964 25.4878 14.6696 26.2523L13.7618 26.9283C11.1233 28.8929 7.34996 27.2314 7.01772 23.9585L6.80204 21.8339C6.68903 20.7207 6.14019 19.6975 5.27534 18.9875L3.40985 17.4563C0.983171 15.4643 1.49088 11.6171 4.35123 10.3228L5.98313 9.58443C7.08965 9.08376 7.92804 8.13221 8.28537 6.97144L8.6812 5.68562Z" fill="url(#paint0_linear_6_9)"/>
</g>
<path d="M16.6876 3.68407C14.098 0.528326 9.03745 1.52398 7.83638 5.42555L7.44055 6.71137C7.15779 7.62991 6.49435 8.3829 5.61873 8.77909L3.98683 9.51749C0.529606 11.0818 -0.0840541 15.7319 2.84901 18.1395L4.71451 19.6708C5.39888 20.2326 5.8332 21.0423 5.92262 21.9232L6.1383 24.0478C6.53988 28.0036 11.1006 30.0119 14.2898 27.6372L15.1975 26.9613C16.01 26.3563 17.0525 26.1512 18.0336 26.4033L19.1298 26.685C22.9808 27.6744 26.4408 24.0881 25.3139 20.275L24.7086 18.227C24.4576 17.3779 24.5528 16.464 24.9734 15.6848L26.1197 13.561C27.9221 10.2217 25.5925 6.15064 21.8004 6.01266L20.0104 5.94753C19.0499 5.91258 18.1507 5.46706 17.541 4.7241L16.6876 3.68407Z" stroke="black" stroke-opacity="0.05" stroke-width="1.76788"/>
<defs>
<filter id="filter0_i_6_9" x="0.0927124" y="0.925598" width="27.5328" height="68.1521" filterUnits="userSpaceOnUse" color-interpolation-filters="sRGB">
<feFlood flood-opacity="0" result="BackgroundImageFix"/>
<feBlend mode="normal" in="SourceGraphic" in2="BackgroundImageFix" result="shape"/>
<feColorMatrix in="SourceAlpha" type="matrix" values="0 0 0 0 0 0 0 0 0 0 0 0 0 0 0 0 0 0 127 0" result="hardAlpha"/>
<feOffset dy="39.5356"/>
<feGaussianBlur stdDeviation="24.7097"/>
<feComposite in2="hardAlpha" operator="arithmetic" k2="-1" k3="1"/>
<feColorMatrix type="matrix" values="0 0 0 0 1 0 0 0 0 1 0 0 0 0 1 0 0 0 0.3 0"/>
<feBlend mode="normal" in2="shape" result="effect1_innerShadow_6_9"/>
</filter>
<linearGradient id="paint0_linear_6_9" x1="10.5165" y1="10.0567" x2="12.724" y2="31.9525" gradientUnits="userSpaceOnUse">
<stop stop-color="#FEC90B"/>
<stop offset="1" stop-color="#FE9100"/>
</linearGradient>
</defs>
</svg>
